<svg width="24" height="24" viewBox="0 0 24 24" fill="none" xmlns="http://www.w3.org/2000/svg">
<path d="M15.75 14.25H16.5V15C16.5 15.1989 16.579 15.3897 16.7197 15.5303C16.8603 15.671 17.0511 15.75 17.25 15.75C17.4489 15.75 17.6397 15.671 17.7803 15.5303C17.921 15.3897 18 15.1989 18 15V14.25H18.75C18.9489 14.25 19.1397 14.171 19.2803 14.0303C19.421 13.8897 19.5 13.6989 19.5 13.5C19.5 13.3011 19.421 13.1103 19.2803 12.9697C19.1397 12.829 18.9489 12.75 18.75 12.75H18V12C18 11.8011 17.921 11.6103 17.7803 11.4697C17.6397 11.329 17.4489 11.25 17.25 11.25C17.0511 11.25 16.8603 11.329 16.7197 11.4697C16.579 11.6103 16.5 11.8011 16.5 12V12.75H15.75C15.5511 12.75 15.3603 12.829 15.2197 12.9697C15.079 13.1103 15 13.3011 15 13.5C15 13.6989 15.079 13.8897 15.2197 14.0303C15.3603 14.171 15.5511 14.25 15.75 14.25Z" fill="#181D25"/>
<path d="M8.78033 14.0303C8.63968 14.171 8.44891 14.25 8.25 14.25H5.25C5.05109 14.25 4.86032 14.171 4.71967 14.0303C4.57902 13.8897 4.5 13.6989 4.5 13.5C4.5 13.3011 4.57902 13.1103 4.71967 12.9697C4.86032 12.829 5.05109 12.75 5.25 12.75H8.25C8.44891 12.75 8.63968 12.829 8.78033 12.9697C8.92098 13.1103 9 13.3011 9 13.5C9 13.6989 8.92098 13.8897 8.78033 14.0303Z" fill="#181D25"/>
<path fill-rule="evenodd" clip-rule="evenodd" d="M21.75 4.5H20.25V2.25C20.25 2.05109 20.171 1.86032 20.0303 1.71967C19.8897 1.57902 19.6989 1.5 19.5 1.5H16.5C16.3011 1.5 16.1103 1.57902 15.9697 1.71967C15.829 1.86032 15.75 2.05109 15.75 2.25V4.5H8.25V2.25C8.25 2.05109 8.17098 1.86032 8.03033 1.71967C7.88968 1.57902 7.69891 1.5 7.5 1.5H4.5C4.30109 1.5 4.11032 1.57902 3.96967 1.71967C3.82902 1.86032 3.75 2.05109 3.75 2.25V4.5H2.25C1.65326 4.5 1.08097 4.73705 0.65901 5.15901C0.237053 5.58097 0 6.15326 0 6.75V8.25C0 8.64782 0.158035 9.02936 0.43934 9.31066C0.720644 9.59196 1.10218 9.75 1.5 9.75V20.25C1.5 20.8467 1.73705 21.419 2.15901 21.841C2.58097 22.2629 3.15326 22.5 3.75 22.5H20.25C20.8467 22.5 21.419 22.2629 21.841 21.841C22.2629 21.419 22.5 20.8467 22.5 20.25V9.75C22.8978 9.75 23.2794 9.59196 23.5607 9.31066C23.842 9.02936 24 8.64782 24 8.25V6.75C24 6.15326 23.7629 5.58097 23.341 5.15901C22.919 4.73705 22.3467 4.5 21.75 4.5ZM17.25 3H18.75V4.5H17.25V3ZM5.25 3H6.75V4.5H5.25V3ZM21 20.25C21 20.4489 20.921 20.6397 20.7803 20.7803C20.6397 20.921 20.4489 21 20.25 21H3.75C3.55109 21 3.36032 20.921 3.21967 20.7803C3.07902 20.6397 3 20.4489 3 20.25V9.75H21V20.25ZM22.5 8.25H1.5V6.75C1.5 6.55109 1.57902 6.36032 1.71967 6.21967C1.86032 6.07902 2.05109 6 2.25 6H21.75C21.9489 6 22.1397 6.07902 22.2803 6.21967C22.421 6.36032 22.5 6.55109 22.5 6.75V8.25Z" fill="#181D25"/>
</svg>
