<svg width="18" height="18" viewBox="0 0 18 18" fill="none" xmlns="http://www.w3.org/2000/svg">
<g clip-path="url(#clip0_9713_11020)">
<path fill-rule="evenodd" clip-rule="evenodd" d="M6.75 15.6562C6.69822 15.6562 6.65625 15.6982 6.65625 15.75C6.65625 15.8018 6.69822 15.8438 6.75 15.8438C6.80178 15.8438 6.84375 15.8018 6.84375 15.75C6.84375 15.6982 6.80178 15.6562 6.75 15.6562ZM5.34375 15.75C5.34375 14.9733 5.97335 14.3438 6.75 14.3438C7.52665 14.3438 8.15625 14.9733 8.15625 15.75C8.15625 16.5266 7.52665 17.1562 6.75 17.1562C5.97335 17.1562 5.34375 16.5266 5.34375 15.75Z" fill="#E0E5EB"/>
<path fill-rule="evenodd" clip-rule="evenodd" d="M15 15.6562C14.9482 15.6562 14.9062 15.6982 14.9062 15.75C14.9062 15.8018 14.9482 15.8438 15 15.8438C15.0518 15.8438 15.0938 15.8018 15.0938 15.75C15.0938 15.6982 15.0518 15.6562 15 15.6562ZM13.5938 15.75C13.5938 14.9733 14.2233 14.3438 15 14.3438C15.7767 14.3438 16.4062 14.9733 16.4062 15.75C16.4062 16.5266 15.7767 17.1562 15 17.1562C14.2233 17.1562 13.5938 16.5266 13.5938 15.75Z" fill="#E0E5EB"/>
<path fill-rule="evenodd" clip-rule="evenodd" d="M0.09375 0.75C0.09375 0.387563 0.387563 0.09375 0.75 0.09375H3.75C4.06279 0.09375 4.3321 0.314503 4.39349 0.621206L5.03848 3.84375H17.25C17.4456 3.84375 17.631 3.93098 17.7556 4.08168C17.8803 4.23237 17.9313 4.43082 17.8946 4.62293L16.6937 10.9204C16.5951 11.4167 16.3251 11.8626 15.9309 12.1799C15.5384 12.4958 15.0478 12.6643 14.5443 12.6562H7.26574C6.76217 12.6643 6.27157 12.4958 5.87915 12.1799C5.48509 11.8627 5.21512 11.4171 5.11644 10.9209L3.86301 4.65848C3.85828 4.63938 3.85438 4.61995 3.85136 4.60024L3.21208 1.40625H0.75C0.387563 1.40625 0.09375 1.11244 0.09375 0.75ZM5.30117 5.15625L6.40368 10.6647C6.44225 10.8589 6.54792 11.0334 6.70217 11.1575C6.85643 11.2817 7.04944 11.3477 7.24743 11.3439L7.26 11.3438H14.55L14.5626 11.3439C14.7606 11.3477 14.9536 11.2817 15.1078 11.1575C15.2615 11.0338 15.367 10.8602 15.4059 10.6668L15.4063 10.6647L16.4568 5.15625H5.30117Z" fill="#E0E5EB"/>
</g>
<defs>
<clipPath id="clip0_9713_11020">
<rect width="18" height="18" fill="white"/>
</clipPath>
</defs>
</svg>
