<svg width="18" height="18" viewBox="0 0 18 18" fill="none" xmlns="http://www.w3.org/2000/svg">
<path fill-rule="evenodd" clip-rule="evenodd" d="M1.59375 2.25C1.59375 1.88756 1.88756 1.59375 2.25 1.59375H7.5C7.86244 1.59375 8.15625 1.88756 8.15625 2.25V7.5C8.15625 7.86244 7.86244 8.15625 7.5 8.15625H2.25C1.88756 8.15625 1.59375 7.86244 1.59375 7.5V2.25ZM2.90625 2.90625V6.84375H6.84375V2.90625H2.90625Z" fill="#E0E5EB"/>
<path fill-rule="evenodd" clip-rule="evenodd" d="M9.84375 2.25C9.84375 1.88756 10.1376 1.59375 10.5 1.59375H15.75C16.1124 1.59375 16.4062 1.88756 16.4062 2.25V7.5C16.4062 7.86244 16.1124 8.15625 15.75 8.15625H10.5C10.1376 8.15625 9.84375 7.86244 9.84375 7.5V2.25ZM11.1562 2.90625V6.84375H15.0938V2.90625H11.1562Z" fill="#E0E5EB"/>
<path fill-rule="evenodd" clip-rule="evenodd" d="M9.84375 10.5C9.84375 10.1376 10.1376 9.84375 10.5 9.84375H15.75C16.1124 9.84375 16.4062 10.1376 16.4062 10.5V15.75C16.4062 16.1124 16.1124 16.4062 15.75 16.4062H10.5C10.1376 16.4062 9.84375 16.1124 9.84375 15.75V10.5ZM11.1562 11.1562V15.0938H15.0938V11.1562H11.1562Z" fill="#E0E5EB"/>
<path fill-rule="evenodd" clip-rule="evenodd" d="M1.59375 10.5C1.59375 10.1376 1.88756 9.84375 2.25 9.84375H7.5C7.86244 9.84375 8.15625 10.1376 8.15625 10.5V15.75C8.15625 16.1124 7.86244 16.4062 7.5 16.4062H2.25C1.88756 16.4062 1.59375 16.1124 1.59375 15.75V10.5ZM2.90625 11.1562V15.0938H6.84375V11.1562H2.90625Z" fill="#E0E5EB"/>
</svg>
