<svg width="24" height="24" viewBox="0 0 24 24" fill="none" xmlns="http://www.w3.org/2000/svg">
<g clip-path="url(#clip0_1886_39140)">
<path d="M23.9136 18.8364L22.5197 14.7797C23.1916 13.4062 23.5467 11.8786 23.5491 10.3416C23.5532 7.66911 22.5192 5.14222 20.6376 3.22643C18.7555 1.31027 16.2476 0.231628 13.5757 0.1893C10.8052 0.145518 8.20099 1.19936 6.24316 3.15715C4.35531 5.04495 3.30822 7.53369 3.27507 10.1932C1.41441 11.5941 0.316178 13.7782 0.319788 16.1112C0.321522 17.2029 0.567241 18.2881 1.03285 19.2694L0.0727092 22.0636C-0.0923379 22.5439 0.0282248 23.0654 0.387382 23.4246C0.640132 23.6774 0.973367 23.812 1.31607 23.812C1.46026 23.812 1.60613 23.7881 1.7484 23.7393L4.54258 22.7791C5.52391 23.2447 6.60911 23.4904 7.70083 23.4922C7.70477 23.4922 7.70852 23.4922 7.71246 23.4922C10.0801 23.4921 12.2809 22.3655 13.6767 20.4593C15.1292 20.421 16.5664 20.0694 17.8656 19.4338L21.9224 20.8278C22.0914 20.8859 22.2647 20.9142 22.4361 20.9142C22.8433 20.9142 23.2393 20.7542 23.5397 20.4538C23.9665 20.027 24.1097 19.4072 23.9136 18.8364ZM7.71236 22.0636C7.70932 22.0636 7.70608 22.0636 7.70304 22.0636C6.73675 22.0622 5.77717 21.8239 4.92822 21.3748C4.75366 21.2825 4.54872 21.2665 4.36206 21.3306L1.49692 22.3151L2.48143 19.45C2.54556 19.2633 2.52962 19.0584 2.43728 18.8839C1.98812 18.0349 1.7499 17.0753 1.7484 16.109C1.74601 14.5547 2.35065 13.0814 3.40801 11.9783C3.75339 14.0837 4.75684 16.0239 6.31225 17.5516C7.85618 19.0681 9.7969 20.0336 11.8909 20.3493C10.7852 21.4391 9.29477 22.0636 7.71236 22.0636ZM22.5295 19.4436C22.4888 19.4843 22.4407 19.4953 22.3865 19.4767L18.0436 17.9843C17.9682 17.9584 17.8897 17.9456 17.8115 17.9456C17.6962 17.9456 17.5814 17.9735 17.4775 18.0285C16.2375 18.6845 14.8363 19.0324 13.4253 19.0345C13.4206 19.0345 13.4164 19.0345 13.4118 19.0345C8.6838 19.0345 4.7785 15.1939 4.70359 10.467C4.66586 8.08649 5.57139 5.84919 7.25332 4.16726C8.93524 2.48534 11.1729 1.58013 13.5531 1.61763C18.2845 1.69268 22.1278 5.6052 22.1205 10.3393C22.1183 11.7504 21.7704 13.1516 21.1145 14.3915C21.0222 14.566 21.0062 14.771 21.0704 14.9577L22.5626 19.3006C22.5812 19.3549 22.5701 19.4031 22.5295 19.4436Z" fill="#181D25"/>
<path d="M17.6669 6.53961H9.15621C8.76171 6.53961 8.44193 6.85944 8.44193 7.25389C8.44193 7.64839 8.76176 7.96817 9.15621 7.96817H17.6669C18.0614 7.96817 18.3811 7.64835 18.3811 7.25389C18.3811 6.85944 18.0614 6.53961 17.6669 6.53961Z" fill="#181D25"/>
<path d="M17.6669 9.47732H9.15621C8.76171 9.47732 8.44193 9.79715 8.44193 10.1916C8.44193 10.5861 8.76176 10.9059 9.15621 10.9059H17.6669C18.0614 10.9059 18.3811 10.5861 18.3811 10.1916C18.3811 9.79715 18.0614 9.47732 17.6669 9.47732Z" fill="#181D25"/>
<path d="M14.3908 12.4149H9.15616C8.76166 12.4149 8.44188 12.7348 8.44188 13.1292C8.44188 13.5237 8.76171 13.8435 9.15616 13.8435H14.3908C14.7853 13.8435 15.1051 13.5237 15.1051 13.1292C15.1051 12.7348 14.7853 12.4149 14.3908 12.4149Z" fill="#181D25"/>
</g>
<defs>
<clipPath id="clip0_1886_39140">
<rect width="24" height="24" fill="white"/>
</clipPath>
</defs>
</svg>
