<svg width="24" height="24" viewBox="0 0 24 24" fill="none" xmlns="http://www.w3.org/2000/svg">
<g clip-path="url(#clip0_1885_38869)">
<path d="M23.25 16.125H22.125V5.625C22.125 5.02826 21.8879 4.45597 21.466 4.03401C21.044 3.61205 20.4717 3.375 19.875 3.375H4.125C3.52826 3.375 2.95597 3.61205 2.53401 4.03401C2.11205 4.45597 1.875 5.02826 1.875 5.625V16.125H0.75C0.551088 16.125 0.360322 16.204 0.21967 16.3447C0.0790176 16.4853 0 16.6761 0 16.875L0 17.625C0 18.4206 0.316071 19.1837 0.87868 19.7463C1.44129 20.3089 2.20435 20.625 3 20.625H21C21.7956 20.625 22.5587 20.3089 23.1213 19.7463C23.6839 19.1837 24 18.4206 24 17.625V16.875C24 16.6761 23.921 16.4853 23.7803 16.3447C23.6397 16.204 23.4489 16.125 23.25 16.125ZM3.375 5.625C3.375 5.42609 3.45402 5.23532 3.59467 5.09467C3.73532 4.95402 3.92609 4.875 4.125 4.875H19.875C20.0739 4.875 20.2647 4.95402 20.4053 5.09467C20.546 5.23532 20.625 5.42609 20.625 5.625V16.125H15.75C15.5511 16.125 15.3603 16.204 15.2197 16.3447C15.079 16.4853 15 16.6761 15 16.875H9C9 16.6761 8.92098 16.4853 8.78033 16.3447C8.63968 16.204 8.44891 16.125 8.25 16.125H3.375V5.625ZM21 19.125H3C2.60218 19.125 2.22064 18.967 1.93934 18.6857C1.65804 18.4044 1.5 18.0228 1.5 17.625H7.5C7.5 17.8239 7.57902 18.0147 7.71967 18.1553C7.86032 18.296 8.05109 18.375 8.25 18.375H15.75C15.9489 18.375 16.1397 18.296 16.2803 18.1553C16.421 18.0147 16.5 17.8239 16.5 17.625H22.5C22.5 18.0228 22.342 18.4044 22.0607 18.6857C21.7794 18.967 21.3978 19.125 21 19.125Z" fill="#181D25"/>
</g>
<defs>
<clipPath id="clip0_1885_38869">
<rect width="24" height="24" fill="white"/>
</clipPath>
</defs>
</svg>
