<svg width="24" height="24" viewBox="0 0 24 24" fill="none" xmlns="http://www.w3.org/2000/svg">
<path fill-rule="evenodd" clip-rule="evenodd" d="M21 4.75H3C2.30964 4.75 1.75 5.30964 1.75 6V18C1.75 18.6904 2.30964 19.25 3 19.25H21C21.6904 19.25 22.25 18.6904 22.25 18V6C22.25 5.30964 21.6904 4.75 21 4.75ZM3 3C1.34315 3 0 4.34315 0 6V18C0 19.6569 1.34315 21 3 21H21C22.6569 21 24 19.6569 24 18V6C24 4.34315 22.6569 3 21 3H3Z" fill="#181D25"/>
<path fill-rule="evenodd" clip-rule="evenodd" d="M3.125 17C3.125 16.5168 3.51675 16.125 4 16.125H7C7.48325 16.125 7.875 16.5168 7.875 17C7.875 17.4832 7.48325 17.875 7 17.875H4C3.51675 17.875 3.125 17.4832 3.125 17Z" fill="#181D25"/>
<path fill-rule="evenodd" clip-rule="evenodd" d="M3.125 8C3.125 7.51675 3.51675 7.125 4 7.125H20C20.4832 7.125 20.875 7.51675 20.875 8C20.875 8.48325 20.4832 8.875 20 8.875H4C3.51675 8.875 3.125 8.48325 3.125 8Z" fill="#181D25"/>
</svg>
