<svg width="24" height="24" viewBox="0 0 24 24" fill="none" xmlns="http://www.w3.org/2000/svg">
<path fill-rule="evenodd" clip-rule="evenodd" d="M2.97436 4.74194C2.89955 4.74194 2.82781 4.77252 2.77492 4.82697C2.72202 4.88142 2.69231 4.95526 2.69231 5.03226V16.9355H3.3732C3.74152 15.5951 4.93882 14.6129 6.35897 14.6129C7.77913 14.6129 8.97643 15.5951 9.34475 16.9355H12.2821V4.74194H2.97436ZM13.9744 4.16129V3.87097C13.9744 3.38995 13.5955 3 13.1282 3H2.97436C2.45073 3 1.94854 3.21411 1.57828 3.59523C1.20801 3.97636 1 4.49327 1 5.03226V17.8065C1 18.2875 1.37884 18.6774 1.84615 18.6774H3.3732C3.74152 20.0178 4.93882 21 6.35897 21C7.77913 21 8.97643 20.0178 9.34475 18.6774H14.6553C15.0236 20.0178 16.2209 21 17.641 21C19.0612 21 20.2585 20.0178 20.6268 18.6774H22.1538C22.6212 18.6774 23 18.2875 23 17.8065V10.8387C23 10.6809 22.9583 10.526 22.8794 10.3906L19.4948 4.58415C19.3419 4.32181 19.0665 4.16129 18.7692 4.16129H13.9744ZM13.9744 5.90323V9.96774H20.6594L18.2901 5.90323H13.9744ZM21.3077 11.7097H13.9744V16.9355H14.6553C15.0236 15.5951 16.2209 14.6129 17.641 14.6129C19.0612 14.6129 20.2585 15.5951 20.6268 16.9355H21.3077V11.7097ZM6.35897 16.3548C5.58011 16.3548 4.94872 17.0047 4.94872 17.8065C4.94872 18.6082 5.58011 19.2581 6.35897 19.2581C7.13784 19.2581 7.76923 18.6082 7.76923 17.8065C7.76923 17.0047 7.13784 16.3548 6.35897 16.3548ZM17.641 16.3548C16.8622 16.3548 16.2308 17.0047 16.2308 17.8065C16.2308 18.6082 16.8622 19.2581 17.641 19.2581C18.4199 19.2581 19.0513 18.6082 19.0513 17.8065C19.0513 17.0047 18.4199 16.3548 17.641 16.3548Z" fill="#181D25"/>
</svg>
