<svg width="24" height="24" viewBox="0 0 24 24" fill="none" xmlns="http://www.w3.org/2000/svg">
<g clip-path="url(#clip0_1885_38865)">
<path d="M23.9258 17.5844L22.9384 12.2138C22.6211 9.75898 20.5203 7.91058 18.0432 7.91058H5.95655C3.47946 7.91058 1.3787 9.75898 1.06133 12.2138L0.0739909 17.5844C-0.416904 20.2546 1.59608 22.7483 4.29619 22.8567C6.86899 22.9597 8.93604 20.8593 8.94413 18.3529C8.94422 18.344 8.65383 18.3471 15.0557 18.3471C15.0557 20.8448 17.1229 22.9603 19.7036 22.8567C22.3915 22.7488 24.4191 20.2674 23.9258 17.5844ZM21.2787 20.8945C20.1197 21.7107 18.5136 21.6414 17.429 20.5995C16.817 20.0115 16.466 19.1874 16.466 18.3384C16.466 17.5808 15.8414 16.9368 15.0556 16.9368H8.94413C8.15852 16.9368 7.53378 17.5806 7.53378 18.3384C7.53378 20.0586 6.12104 21.5183 4.3527 21.4475C2.73597 21.3826 1.45857 20.0595 1.40776 18.4689C1.39502 18.0708 1.38091 18.2755 2.45193 12.4496C2.45437 12.4364 2.45644 12.423 2.45809 12.4096C2.6782 10.6487 4.18219 9.32088 5.9565 9.32088H18.0432C19.8175 9.32088 21.3214 10.6487 21.5416 12.4096C21.5454 12.4406 21.4756 12.0572 22.5386 17.8394C22.7638 19.0623 22.2149 20.2352 21.2787 20.8945Z" fill="#181D25"/>
<path d="M8.61453 12.7998H7.43925V11.6245C7.43925 11.235 7.12352 10.9193 6.73407 10.9193C6.34463 10.9193 6.0289 11.235 6.0289 11.6245V12.7998H4.85361C4.46417 12.7998 4.14844 13.1155 4.14844 13.5049C4.14844 13.8944 4.46417 14.2101 4.85361 14.2101H6.0289V15.3854C6.0289 15.7749 6.34463 16.0906 6.73407 16.0906C7.12352 16.0906 7.43925 15.7749 7.43925 15.3854V14.2101H8.61453C9.00398 14.2101 9.31971 13.8944 9.31971 13.5049C9.31971 13.1155 9.00398 12.7998 8.61453 12.7998Z" fill="#181D25"/>
<path d="M17.9574 11.4866C17.8701 11.0702 17.4573 10.8316 17.0608 10.9497C16.654 11.0823 16.487 11.4856 16.5912 11.8288C16.7203 12.2323 17.1249 12.4042 17.4703 12.299C17.8352 12.1825 18.0226 11.8351 17.9574 11.4866Z" fill="#181D25"/>
<path d="M19.1456 12.7998C18.7562 12.7998 18.4405 13.1155 18.4405 13.505V13.552C18.4405 13.9414 18.7562 14.2571 19.1456 14.2571C19.5351 14.2571 19.8508 13.9414 19.8508 13.552V13.505C19.8508 13.1155 19.5351 12.7998 19.1456 12.7998Z" fill="#181D25"/>
<path d="M15.3864 12.7998C14.997 12.7998 14.6812 13.1155 14.6812 13.505V13.552C14.6812 13.9414 14.997 14.2572 15.3864 14.2572C15.7759 14.2572 16.0916 13.9414 16.0916 13.552V13.505C16.0916 13.1155 15.7759 12.7998 15.3864 12.7998Z" fill="#181D25"/>
<path d="M17.957 15.2477C17.8698 14.8313 17.457 14.5927 17.0605 14.7108C16.6554 14.8428 16.4871 15.2413 16.5909 15.5904C16.7256 16.0023 17.1311 16.1632 17.47 16.06C17.8335 15.944 18.0225 15.5974 17.957 15.2477Z" fill="#181D25"/>
<path d="M10.1722 4.90689C9.89678 5.18228 9.89678 5.62875 10.1722 5.90414C10.4475 6.17949 10.894 6.17949 11.1694 5.90414C11.6287 5.44484 12.3722 5.44474 12.8315 5.90414C13.1069 6.17953 13.5534 6.17953 13.8288 5.90414C14.1042 5.62875 14.1042 5.18228 13.8288 4.90689C12.8207 3.89872 11.1803 3.89877 10.1722 4.90689Z" fill="#181D25"/>
<path d="M9.0413 3.77671C10.6764 2.14161 13.3231 2.14132 14.9584 3.77671C15.2338 4.05211 15.6803 4.05211 15.9557 3.77671C16.2311 3.50132 16.2311 3.05485 15.9557 2.77946C13.7694 0.593186 10.2306 0.592904 8.04405 2.77946C7.76865 3.05485 7.76865 3.50132 8.04405 3.77671C8.31944 4.05211 8.76595 4.05211 9.0413 3.77671Z" fill="#181D25"/>
</g>
<defs>
<clipPath id="clip0_1885_38865">
<rect width="24" height="24" fill="white"/>
</clipPath>
</defs>
</svg>
