<svg width="24" height="24" viewBox="0 0 24 24" fill="none" xmlns="http://www.w3.org/2000/svg">
<path fill-rule="evenodd" clip-rule="evenodd" d="M6.375 1.6875C4.71814 1.6875 3.375 3.03064 3.375 4.6875V19.3125C3.375 20.9694 4.71814 22.3125 6.375 22.3125H17.625C19.2819 22.3125 20.625 20.9694 20.625 19.3125V4.6875C20.625 3.03064 19.2819 1.6875 17.625 1.6875H6.375ZM1.875 4.6875C1.875 2.20221 3.88971 0.1875 6.375 0.1875H17.625C20.1103 0.1875 22.125 2.20221 22.125 4.6875V19.3125C22.125 21.7978 20.1103 23.8125 17.625 23.8125H6.375C3.88971 23.8125 1.875 21.7978 1.875 19.3125V4.6875Z" fill="#181D25"/>
<path fill-rule="evenodd" clip-rule="evenodd" d="M12 5.25C9.30761 5.25 7.125 7.43261 7.125 10.125C7.125 12.8174 9.30761 15 12 15C14.6924 15 16.875 12.8174 16.875 10.125C16.875 7.43261 14.6924 5.25 12 5.25ZM5.625 10.125C5.625 6.60418 8.47918 3.75 12 3.75C15.5208 3.75 18.375 6.60418 18.375 10.125C18.375 13.6458 15.5208 16.5 12 16.5C8.47918 16.5 5.625 13.6458 5.625 10.125Z" fill="#181D25"/>
<path fill-rule="evenodd" clip-rule="evenodd" d="M12.5303 9.59467C12.8232 9.88756 12.8232 10.3624 12.5303 10.6553L6.90533 16.2803C6.61244 16.5732 6.13756 16.5732 5.84467 16.2803C5.55178 15.9874 5.55178 15.5126 5.84467 15.2197L11.4697 9.59467C11.7626 9.30178 12.2374 9.30178 12.5303 9.59467Z" fill="#181D25"/>
</svg>
