<svg width="24" height="24" viewBox="0 0 24 24" fill="none" xmlns="http://www.w3.org/2000/svg">
<path d="M21.1757 13.4465V10.5883C21.1757 8.15458 20.2089 5.82051 18.4879 4.09959C16.767 2.37867 14.4329 1.41187 11.9992 1.41187C9.56544 1.41187 7.23137 2.37867 5.51045 4.09959C3.78953 5.82051 2.82273 8.15458 2.82273 10.5883V13.4465C2.23712 13.5271 1.70035 13.8166 1.31124 14.2616C0.92213 14.7066 0.706867 15.2772 0.705078 15.8683V20.1319C0.705825 20.7831 0.964871 21.4075 1.42539 21.868C1.8859 22.3285 2.51028 22.5876 3.16155 22.5883H5.49096C5.90627 22.5881 6.30453 22.4232 6.59833 22.1296C6.89213 21.8361 7.05746 21.438 7.05802 21.0227V14.9775C7.05746 14.5624 6.89233 14.1645 6.59883 13.8711C6.30534 13.5776 5.90744 13.4124 5.49237 13.4119H4.23449V10.5883C4.23449 8.52901 5.05256 6.55402 6.50872 5.09786C7.96488 3.64169 9.93987 2.82363 11.9992 2.82363C14.0585 2.82363 16.0335 3.64169 17.4897 5.09786C18.9458 6.55402 19.7639 8.52901 19.7639 10.5883V13.4119H18.506C18.091 13.4124 17.6931 13.5776 17.3996 13.8711C17.1061 14.1645 16.9409 14.5624 16.9404 14.9775V21.0227C16.9409 21.4377 17.1061 21.8357 17.3996 22.1291C17.6931 22.4226 18.091 22.5878 18.506 22.5883H20.8354C21.4869 22.588 22.1117 22.3291 22.5725 21.8685C23.0333 21.408 23.2926 20.7834 23.2933 20.1319V15.8683C23.2915 15.2772 23.0763 14.7066 22.6872 14.2616C22.298 13.8166 21.7613 13.5271 21.1757 13.4465ZM5.64625 14.9775V21.0227C5.64607 21.0634 5.6298 21.1025 5.60098 21.1313C5.57216 21.1601 5.53313 21.1764 5.49237 21.1766H3.16155C2.88459 21.1762 2.61908 21.066 2.42324 20.8702C2.2274 20.6743 2.11722 20.4088 2.11684 20.1319V15.8683C2.11722 15.5914 2.2274 15.3259 2.42324 15.13C2.61908 14.9342 2.88459 14.824 3.16155 14.8236H5.49096C5.51126 14.8235 5.53138 14.8274 5.55017 14.8351C5.56896 14.8428 5.58606 14.8541 5.60048 14.8684C5.6149 14.8827 5.62636 14.8997 5.63422 14.9184C5.64207 14.9371 5.64616 14.9572 5.64625 14.9775ZM21.8815 20.1305C21.8815 20.4077 21.7715 20.6735 21.5756 20.8697C21.3798 21.0658 21.114 21.1762 20.8368 21.1766H18.5074C18.4871 21.1767 18.467 21.1728 18.4482 21.1651C18.4294 21.1574 18.4123 21.1461 18.3979 21.1318C18.3835 21.1175 18.372 21.1005 18.3642 21.0818C18.3563 21.0631 18.3522 21.043 18.3521 21.0227V14.9775C18.3523 14.9368 18.3686 14.8977 18.3974 14.8689C18.4262 14.8401 18.4653 14.8238 18.506 14.8236H20.8354C21.1126 14.8236 21.3785 14.9337 21.5746 15.1295C21.7708 15.3254 21.8812 15.5911 21.8815 15.8683V20.1305Z" fill="#181D25"/>
</svg>
