<svg width="18" height="16" viewBox="0 0 18 16" fill="none" xmlns="http://www.w3.org/2000/svg">
<path fill-rule="evenodd" clip-rule="evenodd" d="M11.127 0.864166C11.7072 0.623745 12.3291 0.5 12.9572 0.5C13.5853 0.5 14.2072 0.623745 14.7874 0.864166C15.3677 1.10459 15.8949 1.45697 16.3389 1.90119C16.783 2.34515 17.1353 2.87226 17.3757 3.4524C17.6161 4.03263 17.7398 4.65455 17.7398 5.28262C17.7398 5.91069 17.6161 6.53261 17.3757 7.11284C17.1353 7.69303 16.7829 8.22017 16.3388 8.66416C16.3387 8.66419 16.3388 8.66412 16.3388 8.66416L9.70876 15.2942C9.45248 15.5504 9.03696 15.5504 8.78068 15.2942L2.15068 8.66416C1.25384 7.76732 0.75 6.55094 0.75 5.28262C0.75 4.0143 1.25384 2.79792 2.15068 1.90108C3.04752 1.00424 4.2639 0.500401 5.53222 0.500401C6.80054 0.500401 8.01692 1.00424 8.91376 1.90108L9.24472 2.23204L9.57557 1.90119C10.0196 1.45697 10.5468 1.10459 11.127 0.864166ZM15.4106 2.82905C15.0884 2.50677 14.706 2.25112 14.285 2.0767C13.8641 1.90228 13.4129 1.8125 12.9572 1.8125C12.5016 1.8125 12.0504 1.90228 11.6294 2.0767C11.2085 2.25112 10.826 2.50677 10.5039 2.82905L9.70876 3.62416C9.45248 3.88044 9.03696 3.88044 8.78068 3.62416L7.98568 2.82916C7.33498 2.17846 6.45244 1.8129 5.53222 1.8129C4.61199 1.8129 3.72946 2.17846 3.07876 2.82916C2.42806 3.47986 2.0625 4.36239 2.0625 5.28262C2.0625 6.20285 2.42806 7.08538 3.07876 7.73608L9.24472 13.902L15.4107 7.73608C15.733 7.41396 15.9887 7.03138 16.1631 6.61043C16.3376 6.18947 16.4273 5.73828 16.4273 5.28262C16.4273 4.82696 16.3376 4.37576 16.1631 3.95481C15.9887 3.53385 15.7328 3.15117 15.4106 2.82905Z" fill="#E0E5EB"/>
</svg>
