<svg width="18" height="18" viewBox="0 0 18 18" fill="none" xmlns="http://www.w3.org/2000/svg">
<path d="M12.75 4.59375H5.25C4.88756 4.59375 4.59375 4.88756 4.59375 5.25C4.59375 5.61244 4.88756 5.90625 5.25 5.90625H11.1657L4.78596 12.286C4.52968 12.5422 4.52968 12.9578 4.78596 13.214C5.04224 13.4703 5.45776 13.4703 5.71404 13.214L12.0938 6.83433V12.75C12.0938 13.1124 12.3876 13.4062 12.75 13.4062C13.1124 13.4062 13.4062 13.1124 13.4062 12.75V5.25C13.4062 5.06949 13.3334 4.906 13.2154 4.78735L13.2126 4.78457C13.15 4.72234 13.078 4.67533 13.0012 4.64355C12.9238 4.61146 12.839 4.59375 12.75 4.59375Z" fill="white"/>
</svg>
