<svg width="24" height="24" viewBox="0 0 24 24" fill="none" xmlns="http://www.w3.org/2000/svg">
<g clip-path="url(#clip0_1885_38866)">
<path d="M23.25 0.9375H0.75C0.551088 0.9375 0.360322 1.01652 0.21967 1.15717C0.0790176 1.29782 0 1.48859 0 1.6875L0 18.1875C0 18.3864 0.0790176 18.5772 0.21967 18.7178C0.360322 18.8585 0.551088 18.9375 0.75 18.9375H9.75V21.5625H8.13375C7.93484 21.5625 7.74407 21.6415 7.60342 21.7822C7.46277 21.9228 7.38375 22.1136 7.38375 22.3125C7.38375 22.5114 7.46277 22.7022 7.60342 22.8428C7.74407 22.9835 7.93484 23.0625 8.13375 23.0625H15.8663C16.0652 23.0625 16.2559 22.9835 16.3966 22.8428C16.5372 22.7022 16.6163 22.5114 16.6163 22.3125C16.6163 22.1136 16.5372 21.9228 16.3966 21.7822C16.2559 21.6415 16.0652 21.5625 15.8663 21.5625H14.25V18.9375H23.25C23.4489 18.9375 23.6397 18.8585 23.7803 18.7178C23.921 18.5772 24 18.3864 24 18.1875V1.6875C24 1.48859 23.921 1.29782 23.7803 1.15717C23.6397 1.01652 23.4489 0.9375 23.25 0.9375ZM22.5 2.4375V14.4375H1.5V2.4375H22.5ZM12.75 21.5625H11.25V18.9375H12.75V21.5625ZM1.5 17.4375V15.9375H22.5V17.4375H1.5Z" fill="#181D25"/>
</g>
<defs>
<clipPath id="clip0_1885_38866">
<rect width="24" height="24" fill="white"/>
</clipPath>
</defs>
</svg>
