<svg width="16" height="16" viewBox="0 0 16 16" fill="none" xmlns="http://www.w3.org/2000/svg">
<path fill-rule="evenodd" clip-rule="evenodd" d="M7.97987 0.927808C8.10687 1.15315 8.08965 1.43208 7.93589 1.64009C7.28188 2.52489 6.96717 3.61504 7.04899 4.71227C7.13081 5.8095 7.60374 6.84091 8.38175 7.61892C9.15976 8.39693 10.1912 8.86986 11.2884 8.95168C12.3856 9.0335 13.4758 8.71879 14.3606 8.06478C14.8152 7.73988 15.4425 8.09545 15.4041 8.6529C15.2747 10.0537 14.749 11.3886 13.8885 12.5015C13.0281 13.6144 11.8685 14.4592 10.5454 14.9371C9.22231 15.415 7.79049 15.5063 6.41746 15.2001C5.04444 14.8939 3.78701 14.2031 2.79229 13.2084C1.79757 12.2137 1.10672 10.9562 0.800569 9.58321C0.494418 8.21018 0.58563 6.77837 1.06353 5.45529C1.54144 4.13221 2.38627 2.97261 3.49916 2.11215C4.61206 1.2517 5.947 0.725995 7.34777 0.596545C7.60534 0.572743 7.85287 0.702463 7.97987 0.927808ZM13.825 9.8539C12.9954 10.186 12.095 10.328 11.1908 10.2605C9.78008 10.1553 8.45397 9.5473 7.45367 8.547C6.45337 7.5467 5.84533 6.22059 5.74012 4.80987C5.6727 3.9057 5.81471 3.00527 6.14677 2.17569C5.48353 2.39113 4.85895 2.71986 4.30197 3.1505C3.3863 3.85846 2.69119 4.81257 2.29797 5.90118C1.90476 6.98978 1.82971 8.16786 2.08161 9.29756C2.33351 10.4273 2.90193 11.4619 3.72037 12.2803C4.5388 13.0987 5.5734 13.6672 6.70311 13.9191C7.83281 14.171 9.01089 14.0959 10.0995 13.7027C11.1881 13.3095 12.1422 12.6144 12.8502 11.6987C13.2808 11.1417 13.6095 10.5171 13.825 9.8539Z" fill="#E0E5EB"/>
</svg>
