<svg width="14" height="14" viewBox="0 0 14 14" fill="none" xmlns="http://www.w3.org/2000/svg">
<path fill-rule="evenodd" clip-rule="evenodd" d="M12.714 1.28596C12.9703 1.54224 12.9703 1.95776 12.714 2.21404L2.21404 12.714C1.95776 12.9703 1.54224 12.9703 1.28596 12.714C1.02968 12.4578 1.02968 12.0422 1.28596 11.786L11.786 1.28596C12.0422 1.02968 12.4578 1.02968 12.714 1.28596Z" fill="#F55266"/>
<path fill-rule="evenodd" clip-rule="evenodd" d="M2.875 1.65625C2.2019 1.65625 1.65625 2.2019 1.65625 2.875C1.65625 3.5481 2.2019 4.09375 2.875 4.09375C3.5481 4.09375 4.09375 3.5481 4.09375 2.875C4.09375 2.2019 3.5481 1.65625 2.875 1.65625ZM0.34375 2.875C0.34375 1.47703 1.47703 0.34375 2.875 0.34375C4.27297 0.34375 5.40625 1.47703 5.40625 2.875C5.40625 4.27297 4.27297 5.40625 2.875 5.40625C1.47703 5.40625 0.34375 4.27297 0.34375 2.875Z" fill="#F55266"/>
<path fill-rule="evenodd" clip-rule="evenodd" d="M11.125 9.90625C10.4519 9.90625 9.90625 10.4519 9.90625 11.125C9.90625 11.7981 10.4519 12.3438 11.125 12.3438C11.7981 12.3438 12.3438 11.7981 12.3438 11.125C12.3438 10.4519 11.7981 9.90625 11.125 9.90625ZM8.59375 11.125C8.59375 9.72703 9.72703 8.59375 11.125 8.59375C12.523 8.59375 13.6562 9.72703 13.6562 11.125C13.6562 12.523 12.523 13.6562 11.125 13.6562C9.72703 13.6562 8.59375 12.523 8.59375 11.125Z" fill="#F55266"/>
</svg>
