<svg width="24" height="24" viewBox="0 0 24 24" fill="none" xmlns="http://www.w3.org/2000/svg">
<path fill-rule="evenodd" clip-rule="evenodd" d="M3.40936 3.32387C3.59178 2.10322 4.64012 1.19995 5.8743 1.19995H18.6325C19.8954 1.19995 20.9587 2.14447 21.1075 3.39855L22.8398 17.9943C22.8938 18.4499 22.5683 18.8632 22.1127 18.9173C21.6571 18.9713 21.2438 18.6458 21.1898 18.1902L19.4576 3.59435C19.4079 3.17637 19.0535 2.86149 18.6325 2.86149H5.8743C5.4629 2.86149 5.11345 3.16259 5.05264 3.56946L2.86385 18.2151C2.79604 18.6688 2.3732 18.9817 1.91941 18.9139C1.46563 18.846 1.15274 18.4232 1.22057 17.9694L3.40936 3.32387Z" fill="#181D25"/>
<path fill-rule="evenodd" clip-rule="evenodd" d="M5.35111 16.1538C3.97465 16.1538 2.8588 17.2697 2.8588 18.6461C2.8588 20.0225 3.97465 21.1384 5.35111 21.1384H18.6434C20.0198 21.1384 21.1357 20.0225 21.1357 18.6461C21.1357 17.2697 20.0198 16.1538 18.6434 16.1538H5.35111ZM1.19727 18.6461C1.19727 16.3519 3.057 14.4922 5.35111 14.4922H18.6434C20.9376 14.4922 22.7973 16.3519 22.7973 18.6461C22.7973 20.9402 20.9376 22.7999 18.6434 22.7999H5.35111C3.057 22.7999 1.19727 20.9402 1.19727 18.6461Z" fill="#181D25"/>
<path d="M11.4447 18.6462C11.4447 18.0344 10.9488 17.5385 10.337 17.5385C9.72523 17.5385 9.2293 18.0344 9.2293 18.6462C9.2293 19.258 9.72523 19.7539 10.337 19.7539C10.9488 19.7539 11.4447 19.258 11.4447 18.6462Z" fill="#181D25"/>
<path fill-rule="evenodd" clip-rule="evenodd" d="M13.9355 18.6462C13.9355 18.1873 14.3075 17.8154 14.7663 17.8154H18.0894C18.5482 17.8154 18.9202 18.1873 18.9202 18.6462C18.9202 19.105 18.5482 19.4769 18.0894 19.4769H14.7663C14.3075 19.4769 13.9355 19.105 13.9355 18.6462Z" fill="#181D25"/>
<path fill-rule="evenodd" clip-rule="evenodd" d="M10.059 5.35387C10.059 4.89505 10.4309 4.5231 10.8898 4.5231H13.1051C13.5639 4.5231 13.9359 4.89505 13.9359 5.35387C13.9359 5.81268 13.5639 6.18463 13.1051 6.18463H10.8898C10.4309 6.18463 10.059 5.81268 10.059 5.35387Z" fill="#181D25"/>
</svg>
