<svg width="24" height="24" viewBox="0 0 24 24" fill="none" xmlns="http://www.w3.org/2000/svg">
<g clip-path="url(#clip0_1885_38867)">
<path fill-rule="evenodd" clip-rule="evenodd" d="M3.23077 8.62153C3.63445 8.62153 3.96183 8.9489 3.96183 9.35259C3.96183 9.75628 3.63445 10.0837 3.23077 10.0837C2.82708 10.0837 2.4997 9.75628 2.4997 9.35259C2.4997 8.9489 2.82708 8.62153 3.23077 8.62153ZM6.83878 6.65723H17.1613V2.4H6.83878V6.65723ZM17.3932 8.10276H1.79077C1.69537 8.10276 1.60922 8.14153 1.54645 8.20308C1.4843 8.26584 1.44614 8.35261 1.44614 8.448V19.3834C1.44614 19.4775 1.48491 19.5637 1.54767 19.6265C1.61044 19.6892 1.69659 19.728 1.79077 19.728H3.45909V18.2388C3.45909 17.7545 3.65723 17.3145 3.97542 16.9963L3.97664 16.9975C4.29666 16.6781 4.73602 16.48 5.21789 16.48H18.7822C19.264 16.48 19.7034 16.6781 20.0235 16.9975L20.0247 16.9963C20.3428 17.3145 20.541 17.7545 20.541 18.2388V19.728H22.2093C22.3053 19.728 22.3915 19.6905 22.4524 19.6289L22.4555 19.6264C22.5165 19.5655 22.554 19.4793 22.554 19.3833V8.448C22.554 8.35383 22.5152 8.26767 22.4525 8.2049C22.3897 8.14214 22.3035 8.10276 22.2094 8.10276H17.3932ZM18.6074 2.16801V6.65723H22.2092C22.7022 6.65723 23.1502 6.85847 23.4745 7.18275C23.7988 7.50642 24 7.95445 24 8.448V19.3834C24 19.8732 23.7988 20.32 23.4745 20.6455L23.472 20.6486C23.1458 20.973 22.6991 21.1742 22.2092 21.1742H20.5409V21.288C20.5409 21.7724 20.3428 22.2124 20.0246 22.5305C19.7064 22.8487 19.2664 23.0462 18.7821 23.0462H5.21784C4.73353 23.0462 4.29352 22.8487 3.97537 22.5305C3.65723 22.2124 3.45905 21.7724 3.45905 21.288V21.1742H1.79077C1.29783 21.1742 0.849844 20.973 0.525516 20.6486C0.201234 20.3243 0 19.8763 0 19.3834V8.448C0 7.95633 0.201234 7.50951 0.525516 7.18523L0.528 7.18275C0.852328 6.85842 1.2997 6.65723 1.79077 6.65723H5.39259V2.16801C5.39259 1.83511 5.52919 1.53234 5.74889 1.31264V1.31015C5.96859 1.09045 6.27197 0.953857 6.60675 0.953857H17.3932C17.728 0.953857 18.0314 1.09045 18.2511 1.31015V1.31264C18.4708 1.53229 18.6074 1.83506 18.6074 2.16801ZM18.7822 17.9262H5.21784C5.13047 17.9262 5.05294 17.9606 4.99753 18.0154V18.0185C4.9403 18.0757 4.90523 18.1539 4.90523 18.2388V21.288C4.90523 21.373 4.9403 21.4511 4.99753 21.5084C5.05477 21.565 5.13291 21.6007 5.21784 21.6007H18.7822C18.8671 21.6007 18.9452 21.565 19.0025 21.5084C19.0597 21.4511 19.0948 21.373 19.0948 21.288V18.2388C19.0948 18.1539 19.0597 18.0757 19.0025 18.0185V18.0154C18.9471 17.9606 18.8689 17.9262 18.7822 17.9262ZM6.04678 8.62153C6.45108 8.62153 6.77784 8.9489 6.77784 9.35259C6.77784 9.75628 6.45108 10.0837 6.04678 10.0837C5.64309 10.0837 5.31633 9.75628 5.31633 9.35259C5.31633 8.9489 5.64309 8.62153 6.04678 8.62153Z" fill="#181D25"/>
</g>
<defs>
<clipPath id="clip0_1885_38867">
<rect width="24" height="24" fill="white"/>
</clipPath>
</defs>
</svg>
