<svg width="24" height="24" viewBox="0 0 24 24" fill="none" xmlns="http://www.w3.org/2000/svg">
<path fill-rule="evenodd" clip-rule="evenodd" d="M1 3.12495C1.48325 3.12495 1.875 3.5167 1.875 3.99995V9.12495H7C7.48325 9.12495 7.875 9.5167 7.875 9.99995C7.875 10.4832 7.48325 10.875 7 10.875H1C0.516753 10.875 0.125003 10.4832 0.125003 9.99995V3.99995C0.125003 3.5167 0.516753 3.12495 1 3.12495Z" fill="#181D25"/>
<path fill-rule="evenodd" clip-rule="evenodd" d="M16.125 14C16.125 13.5167 16.5168 13.125 17 13.125H23C23.4833 13.125 23.875 13.5167 23.875 14V20C23.875 20.4832 23.4833 20.875 23 20.875C22.5168 20.875 22.125 20.4832 22.125 20V14.875H17C16.5168 14.875 16.125 14.4832 16.125 14Z" fill="#181D25"/>
<path fill-rule="evenodd" clip-rule="evenodd" d="M9.26168 2.51618C10.8641 2.05268 12.5578 2.00266 14.1848 2.37078C15.8118 2.73891 17.319 3.51319 18.5658 4.62136C19.8126 5.72954 20.7584 7.1355 21.3149 8.70806C21.4761 9.16362 21.2375 9.66362 20.7819 9.82483C20.3263 9.98604 19.8263 9.74742 19.6651 9.29185C19.2073 7.99798 18.4291 6.84117 17.4032 5.92938C16.3774 5.01759 15.1373 4.38053 13.7986 4.07764C12.46 3.77475 11.0664 3.81591 9.74794 4.19727C8.42949 4.57863 7.22913 5.28777 6.25888 6.25852C6.25241 6.26498 6.24585 6.27135 6.23918 6.27761L1.59918 10.6376C1.24701 10.9685 0.693261 10.9513 0.362344 10.5991C0.031426 10.247 0.0486538 9.69321 0.400823 9.36229L5.03106 5.01147C6.20855 3.83673 7.66376 2.97839 9.26168 2.51618ZM23.6377 13.4008C23.9686 13.7529 23.9514 14.3067 23.5992 14.6376L18.9689 18.9884C17.7914 20.1632 16.3362 21.0215 14.7383 21.4837C13.1359 21.9472 11.4422 21.9972 9.81519 21.6291C8.18821 21.261 6.68099 20.4867 5.43418 19.3785C4.18737 18.2704 3.2416 16.8644 2.68513 15.2919C2.52392 14.8363 2.76254 14.3363 3.21811 14.1751C3.67367 14.0139 4.17367 14.2525 4.33488 14.7081C4.79274 16.0019 5.5709 17.1587 6.59676 18.0705C7.62262 18.9823 8.86273 19.6194 10.2014 19.9223C11.54 20.2252 12.9336 20.184 14.2521 19.8026C15.5705 19.4213 16.7709 18.7121 17.7411 17.7414C17.7476 17.7349 17.7542 17.7286 17.7608 17.7223L22.4008 13.3623C22.753 13.0314 23.3067 13.0486 23.6377 13.4008Z" fill="#181D25"/>
</svg>
