<svg width="24" height="24" viewBox="0 0 24 24" fill="none" xmlns="http://www.w3.org/2000/svg">
<path d="M6.75 24H17.25C17.8467 24 18.419 23.7629 18.841 23.341C19.2629 22.919 19.5 22.3467 19.5 21.75V2.25C19.5 1.65326 19.2629 1.08097 18.841 0.65901C18.419 0.237053 17.8467 0 17.25 0L6.75 0C6.15326 0 5.58097 0.237053 5.15901 0.65901C4.73705 1.08097 4.5 1.65326 4.5 2.25V21.75C4.5 22.3467 4.73705 22.919 5.15901 23.341C5.58097 23.7629 6.15326 24 6.75 24ZM9.78 1.5H14.22V1.875H9.78V1.5ZM6 2.25C6 2.05109 6.07902 1.86032 6.21967 1.71967C6.36032 1.57902 6.55109 1.5 6.75 1.5H8.28V2.625C8.28 2.82391 8.35902 3.01468 8.49967 3.15533C8.64032 3.29598 8.83109 3.375 9.03 3.375H14.97C15.1689 3.375 15.3597 3.29598 15.5003 3.15533C15.641 3.01468 15.72 2.82391 15.72 2.625V1.5H17.25C17.4489 1.5 17.6397 1.57902 17.7803 1.71967C17.921 1.86032 18 2.05109 18 2.25V21.75C18 21.9489 17.921 22.1397 17.7803 22.2803C17.6397 22.421 17.4489 22.5 17.25 22.5H6.75C6.55109 22.5 6.36032 22.421 6.21967 22.2803C6.07902 22.1397 6 21.9489 6 21.75V2.25Z" fill="#181D25"/>
</svg>
