<svg width="24" height="24" viewBox="0 0 24 24" fill="none" xmlns="http://www.w3.org/2000/svg">
<path d="M18.6285 0H4.97852C3.55694 0 2.40039 1.15655 2.40039 2.57812V21.4219C2.40039 22.8435 3.55694 24 4.97852 24H18.6285C20.0501 24 21.2066 22.8435 21.2066 21.4219V2.57812C21.2066 1.15655 20.0501 0 18.6285 0ZM19.8004 21.4219C19.8004 22.068 19.2747 22.5938 18.6285 22.5938H4.97852C4.33234 22.5938 3.80664 22.068 3.80664 21.4219V2.57812C3.80664 1.93195 4.33234 1.40625 4.97852 1.40625H18.6285C19.2747 1.40625 19.8004 1.93195 19.8004 2.57812V21.4219Z" fill="#181D25"/>
<path d="M11.8035 10.875C8.83112 10.875 6.41289 13.2932 6.41289 16.2656C6.41289 19.238 8.83112 21.6562 11.8035 21.6562C14.7759 21.6562 17.1941 19.238 17.1941 16.2656C17.1941 13.2932 14.7759 10.875 11.8035 10.875ZM11.8035 20.25C9.60653 20.25 7.81914 18.4626 7.81914 16.2656C7.81914 14.0686 9.60653 12.2812 11.8035 12.2812C14.0005 12.2812 15.7879 14.0686 15.7879 16.2656C15.7879 18.4626 14.0005 20.25 11.8035 20.25Z" fill="#181D25"/>
<path d="M11.8035 9.375C13.742 9.375 15.3191 7.79789 15.3191 5.85938C15.3191 3.92086 13.742 2.34375 11.8035 2.34375C9.865 2.34375 8.28789 3.92086 8.28789 5.85938C8.28789 7.79789 9.865 9.375 11.8035 9.375ZM11.8035 3.75C12.9666 3.75 13.9129 4.69627 13.9129 5.85938C13.9129 7.02248 12.9666 7.96875 11.8035 7.96875C10.6404 7.96875 9.69414 7.02248 9.69414 5.85938C9.69414 4.69627 10.6404 3.75 11.8035 3.75Z" fill="#181D25"/>
</svg>
