<svg width="18" height="18" viewBox="0 0 18 18" fill="none" xmlns="http://www.w3.org/2000/svg">
<g clip-path="url(#clip0_9713_11017)">
<path fill-rule="evenodd" clip-rule="evenodd" d="M11.6004 8.6902C12.6892 7.89012 13.3958 6.60044 13.3958 5.14572C13.3958 2.71803 11.4278 0.75 9.00009 0.75C6.5724 0.75 4.60437 2.71803 4.60437 5.14572C4.60437 6.60042 5.311 7.89008 6.39974 8.69017C3.15864 9.46885 0.75 12.3863 0.75 15.8662C0.75 16.6305 1.36953 17.25 2.13376 17.25H15.8662C16.6305 17.25 17.25 16.6305 17.25 15.8662C17.25 12.3863 14.8414 9.46893 11.6004 8.6902ZM12.0833 5.14572C12.0833 6.84854 10.7029 8.22894 9.00009 8.22894C7.29728 8.22894 5.91687 6.84854 5.91687 5.14572C5.91687 3.44291 7.29728 2.0625 9.00009 2.0625C10.7029 2.0625 12.0833 3.44291 12.0833 5.14572ZM8.13004 9.79871H9.86996C13.221 9.79871 15.9375 12.5152 15.9375 15.8662C15.9375 15.9056 15.9056 15.9375 15.8662 15.9375H2.13376C2.0944 15.9375 2.0625 15.9056 2.0625 15.8662C2.0625 12.5152 4.77903 9.79871 8.13004 9.79871Z" fill="#E0E5EB"/>
</g>
<defs>
<clipPath id="clip0_9713_11017">
<rect width="18" height="18" fill="white"/>
</clipPath>
</defs>
</svg>
