<svg width="24" height="24" viewBox="0 0 24 24" fill="none" xmlns="http://www.w3.org/2000/svg">
<path d="M17.1005 5.16751L16.0355 0.615008C15.953 0.254978 15.6305 0 15.2555 0H8.74555C8.37055 0 8.04806 0.254978 7.96552 0.615008L6.90053 5.16751C2.46805 9 2.46805 15 6.90053 18.8325L7.96552 23.385C8.04805 23.745 8.37055 24 8.74555 24H15.2555C15.6305 24 15.953 23.745 16.0355 23.385L17.1005 18.8325C21.533 15 21.533 9 17.1005 5.16751ZM9.38303 1.5975H14.618L15.233 4.20749C13.2006 3.35999 10.8005 3.35999 8.76802 4.20749L9.38303 1.5975ZM14.618 22.4025H9.38303L8.76802 19.7925C8.82804 19.815 8.89551 19.8375 8.95552 19.86C10.9655 20.64 13.238 20.595 15.233 19.7925L14.618 22.4025ZM15.3606 17.955C10.9655 20.5275 5.04805 17.115 5.16803 12C5.04805 6.88499 10.9655 3.4725 15.3606 6.045C19.9355 8.50498 19.9355 15.495 15.3606 17.955Z" fill="#181D25"/>
<path d="M13.1408 14.62L11.0074 12.4867C10.8756 12.3536 10.8013 12.174 10.8008 11.9867V8.40002H12.2208V11.66L14.1741 13.5867L13.1408 14.62Z" fill="#181D25"/>
</svg>
